<?xml version="1.0" encoding="UTF-8"?>
<!DOCTYPE svg PUBLIC "-//W3C//DTD SVG 1.1//EN" "http://www.w3.org/Graphics/SVG/1.1/DTD/svg11.dtd">
<svg xmlns="http://www.w3.org/2000/svg" xmlns:xlink="http://www.w3.org/1999/xlink" version="1.1" width="273px" height="247px" viewBox="-0.5 -0.5 273 247"><defs><style type="text/css">@import url(https://fonts.googleapis.com/css?family=Sleepy+Hollow);&#xa;</style></defs><g><path d="M 63.86 240 L 73.1 216.15 L 76.36 215.88 L 68.19 236.63 C 67.45 238.12 66.28 239.38 63.86 240 Z" fill="#282662" stroke="none" transform="rotate(-120,135.86,125)" pointer-events="all"/><path d="M 73.1 216.15 L 85.97 185.56 C 79.02 184.62 72.82 186.5 66.64 188.47 C 72.37 185.21 76.09 183 82.72 181.91 C 77.64 180.78 74.58 178.53 71.36 176.37 C 75.72 177.68 80.35 178.84 84.95 178.24 C 84.22 170.57 79.04 163.12 72.86 156.01 C 77.96 158.67 83.25 161.86 85.26 164.68 C 85.71 158.24 86.95 152.74 88.18 147.24 L 98.97 164.1 C 91.43 179.5 83.89 197.9 76.36 215.88 Z M 99.93 195.05 C 97.48 191.42 95.7 189.25 91.98 187.33 L 101.3 165.95 C 103.93 165.74 106.73 165.78 109.51 165.26 C 115.93 166.17 122.4 166.22 129.02 164.05 C 135.23 162.05 138.83 159.49 142.11 156.87 C 139.45 160.74 136.91 164.58 131.16 168.98 C 126.19 172.24 121.77 174.05 117.49 175.5 C 122.41 175.72 127.67 175.75 132.07 171.23 C 129.26 175.72 125.01 180.81 113.68 183.88 C 106.99 185.38 100.62 185.77 94.42 185.54 C 98.92 189.24 99.75 192.21 99.93 195.05 Z" fill="#7e2a7e" stroke="none" transform="rotate(-120,135.86,125)" pointer-events="all"/><path d="M 98.97 164.1 L 88.18 147.24 C 91.62 134.2 96.58 122.24 101.93 112.02 C 105.75 104.94 109.6 98.21 113.56 92.14 C 119.02 83.92 124.51 75.68 131.52 66.69 L 142.22 83.58 C 134.14 96.76 125.92 110.68 117.25 127.17 C 111.3 138.54 105.19 150.93 98.97 164.1 Z M 112.04 164.95 C 106.97 165.85 104.4 165.8 101.3 165.95 C 108.25 150.92 115.7 135.8 123.64 120.61 C 130.26 108.39 136.92 96.22 144.12 84.63 L 172.47 82.17 C 177.73 81.49 182 80.19 185.43 78.38 C 184.54 82.27 182.15 87.36 177.47 94.28 C 173.93 98.96 168.6 102.33 161.68 104.54 C 165.57 104.39 169.72 103.29 175.64 100.21 C 171.06 107.06 164.4 113.57 155.37 115.81 C 158.29 115.89 163.02 114.95 166.84 113.16 C 161.5 125.42 158.04 131.72 153.73 137.85 C 145.31 149.4 137.45 154.8 129.72 158.79 C 125.32 160.89 121.16 163 112.04 164.95 Z" fill="#c7203e" stroke="none" transform="rotate(-120,135.86,125)" pointer-events="all"/><path d="M 142.22 83.58 L 131.52 66.69 C 142.03 53.24 153.07 40.33 165.16 28.46 L 173.39 40.79 C 168.54 46.39 163.39 52.87 157.94 60.22 C 151.92 68.73 147.08 76.14 142.22 83.58 Z M 171.58 82.25 L 144.12 84.63 C 149.7 75.87 154.62 67.53 161.89 57.73 C 165.52 52.42 170.04 46.76 174.47 41.12 C 185.13 40.59 195.78 39.53 206.43 38.05 C 205.13 43.25 202.72 48.7 199.93 53.33 C 196.17 59.84 192.06 65.63 187.75 71.02 C 183.64 76.3 180 78.83 171.58 82.25 Z" fill="#e46a2c" stroke="none" transform="rotate(-120,135.86,125)" pointer-events="all"/><path d="M 173.39 40.79 L 165.16 28.46 C 172.82 21.12 179.77 15.18 185.32 11.98 C 188.27 10.41 191.59 10 195.16 11.31 C 201.06 13.97 205.31 18.67 206.38 23.71 C 207.86 29.49 207.22 34.03 206.43 38.05 C 194.77 39.63 184.04 40.67 174.47 41.12 C 179.58 34.63 184.5 29.35 189.32 24.76 C 183.93 29.31 178.64 34.78 173.39 40.79 Z" fill="#f69825" stroke="none" transform="rotate(-120,135.86,125)" pointer-events="all"/><image x="33.36" y="-0.85" width="140" height="140" xlink:href="https://cdn3.iconfinder.com/data/icons/letters-and-numbers-1/32/letter_P_red-128.png" preserveAspectRatio="none"/><image x="63.36" y="-0.85" width="140" height="140" xlink:href="https://cdn3.iconfinder.com/data/icons/letters-and-numbers-1/32/letter_S_red-128.png" preserveAspectRatio="none"/></g></svg>